<?xml version="1.0" encoding="utf-8"?>
<!-- Generator: Adobe Illustrator 26.5.0, SVG Export Plug-In . SVG Version: 6.00 Build 0)  -->
<svg version="1.1" id="Layer_1" xmlns="http://www.w3.org/2000/svg" xmlns:xlink="http://www.w3.org/1999/xlink" x="0px" y="0px"
	 viewBox="0 0 512 512" style="enable-background:new 0 0 512 512;" xml:space="preserve">
<style type="text/css">
	.st0{fill:url(#SVGID_1_);}
</style>
<linearGradient id="SVGID_1_" gradientUnits="userSpaceOnUse" x1="0" y1="256" x2="512" y2="256">
	<stop  offset="0" style="stop-color:#007BFF"/>
	<stop  offset="1" style="stop-color:#00BFF1"/>
</linearGradient>
<path class="st0" d="M232,120c0-13.3,10.7-24,24-24c13.3,0,24,10.7,24,24v123.2l85.3,56.8c11,7.4,14,22.3,5.8,33.3
	c-6.5,11-21.4,14-32.4,5.8l-96-64c-6.7-3.6-10.7-11.1-10.7-20V120z M256,0c141.4,0,256,114.6,256,256S397.4,512,256,512
	S0,397.4,0,256S114.6,0,256,0z M48,256c0,114.9,93.1,208,208,208s208-93.1,208-208S370.9,48,256,48S48,141.1,48,256z"/>
</svg>
