<?xml version="1.0" encoding="utf-8"?>
<!-- Generator: Adobe Illustrator 26.5.0, SVG Export Plug-In . SVG Version: 6.00 Build 0)  -->
<svg version="1.1"
	 id="Layer_1" shape-rendering="geometricPrecision" text-rendering="geometricPrecision" image-rendering="optimizeQuality"
	 xmlns="http://www.w3.org/2000/svg" xmlns:xlink="http://www.w3.org/1999/xlink" x="0px" y="0px" viewBox="0 0 264 362.2"
	 style="enable-background:new 0 0 264 362.2;" xml:space="preserve">
<style type="text/css">
	.st0{fill-rule:evenodd;clip-rule:evenodd;fill:url(#SVGID_1_);}
</style>
<linearGradient id="SVGID_1_" gradientUnits="userSpaceOnUse" x1="0" y1="306.6965" x2="264" y2="306.6965" gradientTransform="matrix(1 0 0 -1 0 488)">
	<stop  offset="0" style="stop-color:#007BFF"/>
	<stop  offset="1" style="stop-color:#00BFF1"/>
</linearGradient>
<path class="st0" d="M41.9,0h139.3c11.5,0,22.1,4.4,29.6,11.5c7.6,7.2,12.3,17,12.3,27.7v49.8h-14.4V38.8H14.4v269.4h194.2V206.3
	h14.5v117.2c0,10.8-4.7,20.7-12.3,27.7c-7.7,7.2-18.1,11.5-29.6,11.5H41.9c-11.5,0-22.1-4.4-29.6-11.5C4.6,344,0,334.2,0,323.5V39.1
	c0-10.8,4.7-20.6,12.3-27.7S30.3,0,41.9,0z M264,111.4V170c0,3.9-3.3,7.2-7.2,7.2h-40.6l-17,15.1c-1.7,1.9-4.9,0.8-4.9-1.9
	l-0.8-13.2H181c-3.9,0-7.2-3.3-7.2-7.2v-58.6c0-3.9,3.3-7.2,7.2-7.2h75.9C260.7,104.2,264,107.5,264,111.4L264,111.4z M196.4,135.1
	c-2,0-3.7-1.7-3.7-3.7s1.7-3.7,3.7-3.7h47.9c2,0,3.7,1.7,3.7,3.7s-1.7,3.7-3.7,3.7H196.4z M196.4,154.9c-2,0-3.7-1.7-3.7-3.7
	c0-2,1.7-3.7,3.7-3.7h39c2,0,3.7,1.7,3.7,3.7c0,2-1.7,3.7-3.7,3.7H196.4z M34.1,45h20.3c2,0,3.6,1.7,3.6,3.6v3.9l11.7-7.1v22.2
	L58,61.4v5.1c0,2-1.7,3.6-3.6,3.6H34.1c-2,0-3.6-1.7-3.6-3.6V48.7C30.4,46.6,32,45,34.1,45z M94,202.8l19.3,13.4l18.1-15.1
	c-1-1.5-2-3.6-2.8-5.7c8,5.6,9.8,17.5,9.5,27.1c-0.1,1.2-0.1,1.5-0.1,2c-5.1,1.1-8.6,5.6-8.6,10.8c0,3,1.2,5.8,3.3,7.8
	c3.9,3.9,9.6,4.8,14.6,0.9c2.6-2,4.2-5.2,4.2-8.7c0-1.9-0.5-3.6-1.4-5c-1.8-3.2-3.9-4.2-7-5.7c-0.2-0.1,0-0.6,0.1-1.9
	c0.2-5.8-0.2-11.9-1.8-17.4c1.4,0.7,2.8,1.3,4.2,1.7c4.9,1.1,11.2,1.3,16.8,2.8c27.2,7.6,25.6,17.8,29.4,49.5
	c-0.4,4-2.7,6.4-7.2,6.8h-146c-4.6-0.4-6.8-2.7-7.2-6.8c2-34.9,11.8-47.6,43.9-52.3c2.9-0.4,5.5-1,8-1.6c-1.1,3.4-1.7,6.9-2,9.9
	c-1.3,0.9-4.6,2-5.5,3.3c-1.8,2.1-3.4,4.4-4.8,6.8c-0.2,0.4-0.4,0.8-0.4,1.3c0,0.4,0.4,0.7,0.2,1l-0.2,0.5
	c-3.2,6.3-5.3,13.2-4.3,16.2c0.5,1.4,1.6,2.4,3.3,2.9c1.7,0.5,3.3,0.6,5.1,0.5c0.7,0.6,1.7,1.1,2.6,1.1c1.7,0,3.1-1.4,3.1-3.1
	c0-0.5-0.1-0.9-0.3-1.3c-1.3-3-5.2-2.1-5.7-0.6c-0.1,0.2,0,0.2-0.1,0.4c-0.2,0-0.5,0-0.8,0c-1,0-2-0.1-2.9-0.4
	c-0.5-0.2-0.9-0.4-0.9-0.6c-0.7-2,1.2-7.9,4.1-13.4c0.2-0.2,0.2-0.5,0.4-0.7c0.5-0.2,1-0.6,1.3-1.1c1.2-2.1,2.7-4.2,4.2-6.1
	c0.5-0.6,2-1.5,3.2-1.9c0.6-0.2,1-0.4,1.5,0c0.7,0.5,1.3,1.1,1.8,1.7c1.7,1.9,3.2,4,4.5,6.2c0.3,0.5,1,0.6,1.3,1.1
	c3.3,5.3,5.2,11.4,4.7,13.7c-0.1,0.5-0.5,0.9-1.3,1.1c-1.1,0.3-2.1,0.5-3.3,0.5c-0.2-0.4-0.1-0.2-0.2-0.6c-0.2-0.9-1.7-1.4-2.7-1.4
	c-1.3,0-2.4,0.8-3,2c-0.9,2,0.5,4.4,2.8,4.4c0.8,0,1.7-0.4,2.4-0.9c0.2,0,0.3,0,0.5,0c1.5,0,3.1-0.2,4.6-0.6
	c1.9-0.6,3.2-1.8,3.6-3.8c0.5-3-1.7-9.7-4.9-15.8c0.2-0.3,0.2-0.7,0.2-1c0-0.5-0.2-0.9-0.4-1.3c-1.4-2.5-3.2-4.9-5.1-7.1
	c-1-1.1-3.3-1.5-3.6-3c-0.6-4,1.1-9,3.7-13.3c2.7-3.3,1.5-3.9,6.4-5.8c-1.4-1-2.6-2.2-3.9-3.3c-5-4.3-9.2-8-9.9-16.8
	c-7.4-0.7-10.6-15.7-5.2-20.3c-1.7-1.2,3.3-26.6-9.4-30.4c20.3-25.1,42.6-29.7,61.4-14.3c19.4,1,28.8,29.1,15.6,44.3
	c6.5,1.4,4.1,12.7,1.4,16.9c-1.6,2.4-3.8,4.1-6.2,3.9c-0.2,8-4.1,11.8-9.3,16.6c-3.3,3.1-5.8,5.5-10.2,7.1c-5.2,1.9-12,1.8-17.3,0
	c-2-0.7-4.6-1.7-6.4-2.9C96,199.2,95.1,201.1,94,202.8L94,202.8z M140.5,230.4c2.8,0,5.1,2.3,5.1,5.1l0,0c0,2.8-2.3,5.1-5.1,5.1
	c-2.8,0-5.1-2.3-5.1-5.1C135.4,232.7,137.7,230.4,140.5,230.4z M119.9,195.6c3.5-1.4,5.5-3.4,8-5.9c4.9-4.6,8.6-8,7.9-16.4
	c0-0.5,0.1-0.9,0.3-1.3c0.6-1,1.9-1.2,2.9-0.6c1.4,0.9,2.8,0,3.8-1.5c1.4-2.1,3.3-8.1,1.6-10.3c-0.5-0.6-1.8-0.4-4.3,1.6
	c-0.5,0.4-1.1,0.6-1.7,0.5c-1.1-0.2-1.9-1.3-1.7-2.4l0,0c1.8-10.5,0.9-17.1-1.4-21.5c-2-3.8-5.2-6-8.6-7.8c-7.7,5.8-13,6.5-18.4,7.1
	c-4.4,0.5-8.8,1.1-14.6,5.2c-2.7,1.9-4.6,4.2-5.5,6.9c-0.9,2.7-1,5.9-0.2,9.5c0.2,0.6,0.1,1.4-0.4,1.9c-0.7,0.9-2,1-2.9,0.3
	c-2.5-2.1-4-2.3-4.6-1.5c-2.4,2.9,0,14,4.2,12.7l0.5-0.1c1.1,0,2.1,0.9,2.1,2c0.2,8.6,4,12,8.6,16c3,2.7,5.4,4.8,9.3,6.1
	C109.5,197.5,115,197.1,119.9,195.6z M111.5,324.1c7.1,0,12.9,5.8,12.9,12.9c0,7.1-5.8,12.9-12.9,12.9c-7.1,0-12.9-5.7-12.9-12.9
	C98.5,329.9,104.3,324.1,111.5,324.1z"/>
</svg>
