<?xml version="1.0" encoding="utf-8"?>
<!-- Generator: Adobe Illustrator 26.5.0, SVG Export Plug-In . SVG Version: 6.00 Build 0)  -->
<svg version="1.1"
	 id="Layer_1" shape-rendering="geometricPrecision" text-rendering="geometricPrecision" image-rendering="optimizeQuality"
	 xmlns="http://www.w3.org/2000/svg" xmlns:xlink="http://www.w3.org/1999/xlink" x="0px" y="0px" viewBox="0 0 585 560.7"
	 style="enable-background:new 0 0 585 560.7;" xml:space="preserve">
<style type="text/css">
	.st0{fill-rule:evenodd;clip-rule:evenodd;fill:url(#SVGID_1_);}
</style>
<linearGradient id="SVGID_1_" gradientUnits="userSpaceOnUse" x1="-2.453372e-05" y1="281.65" x2="585.0385" y2="281.65" gradientTransform="matrix(1 0 0 -1 0 562)">
	<stop  offset="0" style="stop-color:#007BFF"/>
	<stop  offset="1" style="stop-color:#00BFF1"/>
</linearGradient>
<path class="st0" d="M426.2,502.8c-1.3,0.2-2.6,0.2-3.9,0H315.9v38.4h111.8v-38.4H426.2z M279.2,82.9H306c5,0,9.1,4.1,9.1,9.1v34h34
	c5,0,9.1,4.1,9.1,9.1v26.8c0,5-4.1,9.1-9.1,9.1h-34v33.2c0,5-4.1,9.1-9.1,9.1h-26.8c-5,0-9.1-4.1-9.1-9.1v-33.2h-34
	c-5,0-9.1-4.1-9.1-9.1v-26.8c0-5,4.1-9.1,9.1-9.1h34v-34C270,87,274.1,82.9,279.2,82.9L279.2,82.9z M292.1,0.1
	c53.8,34.2,102.5,50.3,144.3,46.5c7.2,147.5-47.2,234.5-143.8,270.9c-93.2-34-148.4-117.4-144.3-273.1
	C197.4,46.9,245.5,36.3,292.1,0.1L292.1,0.1z M292.2,21.7c44.3,28.1,90.8,46.5,125.2,43.4c6.1,121.4-45.2,200.9-124.7,230.8
	C215.9,268,164,191.5,167.5,63.3C211.9,65.6,256.7,49.2,292.2,21.7L292.2,21.7z M316.2,483.4h104.3c8.5-8.3,17.6-17,26.8-25.8
	c19.5-18.5,40-37.8,61-62c24-27.6,26.5-37.2,33.8-64.3c1.4-5.1,2.9-10.9,4.9-17.9l12.4-43.9l0.1-0.5c6.6-19.5,7.2-32.4,4.5-39.9
	c-0.9-2.3-1.9-3.8-3.2-4.6c-1-0.7-2.3-0.9-3.7-0.8c-3.3,0.3-7,2.4-10.3,6.1l-37,88.2c-0.3,0.8-0.8,1.6-1.3,2.3
	c-2.2,4-5.1,7.9-8.9,11.4L434,404.9c-3.5,4-9.7,4.3-13.7,0.8c-4-3.5-4.3-9.7-0.8-13.7l65.7-73.2c0.2-0.3,0.6-0.7,0.9-1
	c6.9-6.5,8.9-13.5,7.8-18.5c-0.3-1.6-1-2.9-2.1-3.8c-0.9-0.8-2.1-1.4-3.5-1.6c-5.8-0.6-14.5,3.7-25,16.1l0,0c-0.2,0.3-0.6,0.7-1,1
	l-25.5,22.6l-0.1,0.1c-27.5,26-39.4,32.2-61,43.5c-4.6,2.4-9.5,5-15.6,8.3c-2.4,1.3-4.8,3-7.1,4.7c-2.5,1.8-4.8,3.9-7.1,5.7
	c-11.4,9.6-17.4,17.5-20.8,26c-3.5,8.9-4.9,19.9-6.6,34.8c-0.7,6.1-1.3,12-1.7,17.9C316.5,477.8,316.3,480.6,316.2,483.4
	L316.2,483.4z M268.9,483.4H164.6c-8.5-8.3-17.6-17-26.8-25.8c-19.5-18.5-40-37.8-61-62c-24-27.6-26.5-37.2-33.8-64.3
	c-1.4-5.1-2.9-10.9-4.9-17.9l-12.4-43.9l-0.1-0.5c-6.6-19.5-7.2-32.4-4.5-39.9c0.9-2.3,1.9-3.8,3.2-4.6c1-0.7,2.3-0.9,3.8-0.8
	c3.3,0.3,7,2.4,10.3,6.1l37,88.2c0.3,0.8,0.8,1.6,1.4,2.3c2.2,4,5.1,7.9,8.9,11.4l65.7,73.2c3.5,4,9.7,4.3,13.7,0.8
	c4-3.5,4.3-9.7,0.8-13.7l0,0l-65.7-73.2c-0.2-0.3-0.6-0.7-0.9-1c-6.7-6.5-8.9-13.5-7.8-18.5c0.3-1.6,1-2.9,2.1-3.8
	c0.9-0.8,2.1-1.4,3.5-1.6c5.8-0.6,14.5,3.7,25,16.1l0,0c0.2,0.3,0.6,0.7,0.9,1l25.5,22.5l0.1,0.1c27.5,26,39.4,32.2,61,43.5
	c4.5,2.4,9.5,5,15.6,8.3c2.4,1.3,4.8,3,7.1,4.7c2.5,1.8,4.8,3.9,7.1,5.7c11.4,9.6,17.4,17.5,20.8,26c3.5,8.9,4.9,19.9,6.6,34.8
	c0.7,6.1,1.3,12,1.6,17.9C268.5,477.8,268.8,480.6,268.9,483.4L268.9,483.4z M158.9,502.8c1.3,0.2,2.6,0.2,3.9,0h106.3v38.4H157.3
	v-38.4H158.9L158.9,502.8z M140.3,486.7c-1.6,1.7-2.4,4-2.4,6.4v57.8c0,5.4,4.3,9.7,9.7,9.7h131.2c5.4,0,9.7-4.3,9.7-9.7v-58.4
	c0-6.2-0.5-12.8-0.8-19.1c-0.5-6.3-1-12.6-1.7-18.8c-1.9-16.3-3.3-28.3-7.9-39.7c-4.7-11.8-12.3-21.9-26.3-33.7
	c-2.5-2.2-5.3-4.3-8-6.4c-2.9-2.2-6.1-4.3-9.6-6.3c-5.7-3.1-11.1-5.9-15.9-8.5c-20-10.5-31-16.2-56.7-40.5c-0.2-0.2-0.5-0.3-0.6-0.6
	l-24.9-21.8c-15.2-17.8-30-23.6-41.5-22.4l0,0c-5.6,0.6-10.4,2.7-14.2,6.1L55.5,221l0,0c-0.3-0.9-0.9-1.7-1.5-2.4
	c-7-8.3-15.8-13.2-24.2-14c-5.7-0.6-11.3,0.7-16.2,3.8c-4.7,3-8.5,7.7-10.9,14c-4.2,11.2-4.1,28.6,4.1,52.5l12.3,43.5
	c1.8,6.3,3.4,12.3,4.8,17.7c8.1,30.3,11,40.9,37.9,72c21.4,24.6,42.3,44.4,62.4,63.4C129.8,476.6,135,481.7,140.3,486.7z
	 M444.8,486.7c1.6,1.7,2.4,4,2.4,6.4v57.8c0,5.4-4.3,9.7-9.7,9.7H306.2c-5.4,0-9.7-4.3-9.7-9.7v-58.4c0-0.3,0-0.7,0-1
	c0.2-12.3,1-24.6,2.5-36.9c1.9-16.3,3.3-28.3,7.9-39.7c4.7-11.8,12.3-21.9,26.3-33.7c2.5-2.2,5.1-4.3,8-6.4c2.9-2.2,6.1-4.3,9.6-6.3
	c5.7-3.1,11.1-5.9,15.9-8.5c20-10.5,31-16.2,56.7-40.5c0.2-0.2,0.5-0.3,0.6-0.6l24.9-21.9c15.2-17.8,30-23.6,41.5-22.4l0,0
	c5.6,0.6,10.3,2.7,14.2,6.1l25.1-59.7l0,0c0.3-0.9,0.8-1.7,1.5-2.4c7-8.3,15.8-13.2,24.2-14c5.7-0.6,11.3,0.7,16.2,3.8
	c4.7,3,8.5,7.7,10.9,14c4.2,11.2,4.1,28.6-4.1,52.5l-12.3,43.5c-1.8,6.3-3.4,12.3-4.8,17.7c-8.1,30.3-11,40.9-37.9,72
	c-21.4,24.6-42.3,44.4-62.4,63.4C455.3,476.6,450,481.7,444.8,486.7L444.8,486.7z"/>
</svg>
