<?xml version="1.0" encoding="utf-8"?>
<!-- Generator: Adobe Illustrator 26.5.0, SVG Export Plug-In . SVG Version: 6.00 Build 0)  -->
<svg version="1.1" id="Layer_1" xmlns="http://www.w3.org/2000/svg" xmlns:xlink="http://www.w3.org/1999/xlink" x="0px" y="0px"
	 viewBox="0 0 576 512" style="enable-background:new 0 0 576 512;" xml:space="preserve">
<style type="text/css">
	.st0{fill:url(#SVGID_1_);}
</style>
<linearGradient id="SVGID_1_" gradientUnits="userSpaceOnUse" x1="0" y1="256" x2="576" y2="256">
	<stop  offset="0" style="stop-color:#007BFF"/>
	<stop  offset="1" style="stop-color:#00BFF1"/>
</linearGradient>
<path class="st0" d="M64,32C28.7,32,0,60.7,0,96v32h576V96c0-35.3-28.7-64-64-64H64z M576,224H0v192c0,35.3,28.7,64,64,64h448
	c35.3,0,64-28.7,64-64V224z M112,352h64c8.8,0,16,7.2,16,16s-7.2,16-16,16h-64c-8.8,0-16-7.2-16-16S103.2,352,112,352z M224,368
	c0-8.8,7.2-16,16-16h128c8.8,0,16,7.2,16,16s-7.2,16-16,16H240C231.2,384,224,376.8,224,368z"/>
</svg>
