<?xml version="1.0" encoding="utf-8"?>
<!-- Generator: Adobe Illustrator 26.5.0, SVG Export Plug-In . SVG Version: 6.00 Build 0)  -->
<svg version="1.1"
	 id="Layer_1" shape-rendering="geometricPrecision" text-rendering="geometricPrecision" image-rendering="optimizeQuality"
	 xmlns="http://www.w3.org/2000/svg" xmlns:xlink="http://www.w3.org/1999/xlink" x="0px" y="0px" viewBox="0 0 452 512.1"
	 style="enable-background:new 0 0 452 512.1;" xml:space="preserve">
<style type="text/css">
	.st0{fill-rule:evenodd;clip-rule:evenodd;fill:url(#SVGID_1_);}
</style>
<linearGradient id="SVGID_1_" gradientUnits="userSpaceOnUse" x1="0" y1="257.95" x2="452" y2="257.95" gradientTransform="matrix(1 0 0 -1 0 514)">
	<stop  offset="0" style="stop-color:#007BFF"/>
	<stop  offset="1" style="stop-color:#00BFF1"/>
</linearGradient>
<path class="st0" d="M336.5,255.2h64.4v-12.5c-3.7-13.6-9.5-22.9-17.1-28.5s-17.4-8-29-7.9l-264,0.1c-6.5,0-11.8-5.3-11.8-11.8
	s5.3-11.8,11.8-11.8h263.6c16.6-0.2,31.2,3.6,43.2,12.5c1.1,0.8,2.1,1.6,3.2,2.5v-7.1c0-11-4.5-21-11.8-28.3
	c-7.2-7.3-17.2-11.8-28.3-11.8h-8.5l-1.1-0.1l-4.1,15.6h-28.5l16.9-63.5c-14.2-3.8-22.7-18.5-18.9-32.7l-94.1-25.2
	c-3.8,14.2-18.5,22.7-32.7,18.9l-27.6,102.5h-29.4L177.4,0l199.7,53.5l-19.7,73.7h3.3c17.5,0,33.4,7.2,44.9,18.7
	c11.6,11.5,18.7,27.4,18.7,44.9v65c6.8,1.4,12.9,4.7,17.6,9.4c6.2,6.2,10.1,14.8,10.1,24.3v77.4c0,9.9-4,18.9-10.5,25.3
	c-4.6,4.6-10.5,8-17.1,9.6v46.7c0,17.5-7.2,33.4-18.7,44.9l-0.7,0.7c-11.5,11.1-27.1,18-44.2,18H63.6c-17.5,0-33.4-7.2-44.9-18.7
	C7.2,481.9,0,466,0,448.5V190.9c0-17.5,7.2-33.4,18.7-44.9s27.4-18.7,45-18.7h37.1h0.2l29.6-109.8l28.2,7.5l-38.7,141.2H90.4
	l4.2-15.5h-31c-11,0-21,4.5-28.3,11.8s-11.8,17.3-11.8,28.3v257.6c0,11,4.5,21,11.8,28.3s17.3,11.8,28.3,11.8h297.1
	c10.7,0,20.5-4.3,27.7-11.2l0.5-0.6c7.3-7.3,11.8-17.3,11.8-28.3v-45.7h-64.4c-19.9,0-38-8.1-51-21.2l-1.2-1.4
	c-12.4-13-20-30.5-20-49.7v-3.1c0-19.8,8.1-37.8,21.2-50.9l0.1-0.1C298.7,263.3,316.7,255.2,336.5,255.2L336.5,255.2z M240.8,162.2
	c17.2,4.6,34.9-5.6,39.5-22.8c4.6-17.2-5.6-34.9-22.8-39.5s-34.9,5.6-39.5,22.8S223.6,157.5,240.8,162.2z M362.3,309.1L362.3,309.1
	c11,11,11,28.8,0,39.8v0.1c-11,10.9-28.8,10.9-39.8,0l0,0c-10.9-11-10.9-28.8,0-39.8l0,0C333.5,298.1,351.4,298.1,362.3,309.1z"/>
</svg>
