<?xml version="1.0" encoding="utf-8"?>
<!-- Generator: Adobe Illustrator 26.5.0, SVG Export Plug-In . SVG Version: 6.00 Build 0)  -->
<svg version="1.1" id="Layer_1" xmlns="http://www.w3.org/2000/svg" xmlns:xlink="http://www.w3.org/1999/xlink" x="0px" y="0px"
	 viewBox="0 0 640 512" style="enable-background:new 0 0 640 512;" xml:space="preserve">
<style type="text/css">
	.st0{fill:url(#SVGID_1_);}
</style>
<linearGradient id="SVGID_1_" gradientUnits="userSpaceOnUse" x1="0" y1="256" x2="640" y2="256">
	<stop  offset="0" style="stop-color:#007BFF"/>
	<stop  offset="1" style="stop-color:#00BFF1"/>
</linearGradient>
<path class="st0" d="M64,96c0-35.3,28.7-64,64-64h384c35.3,0,64,28.7,64,64v256h-64V96H128v256H64V96z M0,403.2
	C0,392.6,8.6,384,19.2,384h601.6c10.6,0,19.2,8.6,19.2,19.2c0,42.4-34.4,76.8-76.8,76.8H76.8C34.4,480,0,445.6,0,403.2z M288,160
	c0-8.8,7.2-16,16-16h32c8.8,0,16,7.2,16,16v48h48c8.8,0,16,7.2,16,16v32c0,8.8-7.2,16-16,16h-48v48c0,8.8-7.2,16-16,16h-32
	c-8.8,0-16-7.2-16-16v-48h-48c-8.8,0-16-7.2-16-16v-32c0-8.8,7.2-16,16-16h48V160z"/>
</svg>
