<?xml version="1.0" encoding="UTF-8"?><svg id="Layer_1" xmlns="http://www.w3.org/2000/svg" xmlns:xlink="http://www.w3.org/1999/xlink" viewBox="0 0 640 512"><defs><style>.cls-1{fill:url(#linear-gradient);}</style><linearGradient id="linear-gradient" x1="149.2429" y1="256" x2="490.7571" y2="256" gradientUnits="userSpaceOnUse"><stop offset="0" stop-color="#4374ba"/><stop offset="1" stop-color="#0ebff1"/></linearGradient></defs><path class="cls-1" d="M320.0094,3.8783c-94.3173,0-170.7665,76.4492-170.7665,170.7478,0,31.6573,8.6253,61.3314,23.6495,86.7396l146.8737,246.7559,145.8633-244.3049c15.941-25.9508,25.1276-56.5043,25.1276-89.1907C490.7571,80.3275,414.3079,3.8783,320.0094,3.8783Zm-39.7894,295.2394c-.3327-.5109-.7573-1.4904-1.4591-2.1932-28.5841-28.6204-57.1923-57.217-85.8055-85.8083-.6418-.6413-1.3785-1.1876-2.071-1.7782v-.5057c13.2277-13.3358,26.4554-26.6716,39.6988-40.0233,16.8977,16.8969,33.4893,33.4877,50.0519,50.0494,43.1094-43.0834,85.9303-85.8784,128.5499-128.4722,13.5787,13.5773,26.8483,26.8455,39.9308,39.9266-55.8776,55.8474-112.1075,112.0471-168.8958,168.8048Z"/></svg>