<?xml version="1.0" encoding="utf-8"?>
<!-- Generator: Adobe Illustrator 26.5.0, SVG Export Plug-In . SVG Version: 6.00 Build 0)  -->
<svg version="1.1" id="Layer_1_1_" xmlns="http://www.w3.org/2000/svg" xmlns:xlink="http://www.w3.org/1999/xlink" x="0px" y="0px"
	 viewBox="0 0 64 64" style="enable-background:new 0 0 64 64;" xml:space="preserve">
<style type="text/css">
	.st0{fill:url(#SVGID_1_);}
	.st1{fill:url(#SVGID_00000036230841385807613390000016585356522322158756_);}
	.st2{fill:url(#SVGID_00000170237819173026404640000017862719417898056594_);}
	.st3{fill:url(#SVGID_00000122690684151488439110000016446056494226971048_);}
	.st4{fill:url(#SVGID_00000037663025140257069720000009194389953553385603_);}
	.st5{fill:url(#SVGID_00000010310907157631533770000003431451260744056496_);}
	.st6{fill:url(#SVGID_00000056428499359905899180000006662219165105482685_);}
	.st7{fill:url(#SVGID_00000070085102805474658650000010624054466805609150_);}
	.st8{fill:url(#SVGID_00000044144152186594351450000015756756282324041406_);}
	.st9{fill:url(#SVGID_00000183208738047802546870000002794384204718166418_);}
	.st10{fill:url(#SVGID_00000108302510697630236110000008531275943150411427_);}
	.st11{fill:url(#SVGID_00000142863891431244009500000016019628802836673977_);}
	.st12{fill:url(#SVGID_00000134224787077328102350000006079633761614594445_);}
	.st13{fill:url(#SVGID_00000112594571423622590590000003020033641273641619_);}
	.st14{fill:url(#SVGID_00000001628178938063703770000002256679613276715687_);}
	.st15{fill:url(#SVGID_00000178195408610465872390000003817018157141854647_);}
	.st16{fill:url(#SVGID_00000137095829863897615320000004613573986702708115_);}
	.st17{fill:url(#SVGID_00000021113556000050807600000012009200567131759019_);}
</style>
<g id="Guide">
</g>
<linearGradient id="SVGID_1_" gradientUnits="userSpaceOnUse" x1="31" y1="47" x2="33" y2="47">
	<stop  offset="0" style="stop-color:#007BFF"/>
	<stop  offset="1" style="stop-color:#00BFF1"/>
</linearGradient>
<rect x="31" y="46" class="st0" width="2" height="2"/>
<linearGradient id="SVGID_00000095322358886459700070000011613239151341416845_" gradientUnits="userSpaceOnUse" x1="27" y1="47" x2="29" y2="47">
	<stop  offset="0" style="stop-color:#007BFF"/>
	<stop  offset="1" style="stop-color:#00BFF1"/>
</linearGradient>
<rect x="27" y="46" style="fill:url(#SVGID_00000095322358886459700070000011613239151341416845_);" width="2" height="2"/>
<linearGradient id="SVGID_00000039827614045322463930000003130640031480031889_" gradientUnits="userSpaceOnUse" x1="35" y1="47" x2="37" y2="47">
	<stop  offset="0" style="stop-color:#007BFF"/>
	<stop  offset="1" style="stop-color:#00BFF1"/>
</linearGradient>
<rect x="35" y="46" style="fill:url(#SVGID_00000039827614045322463930000003130640031480031889_);" width="2" height="2"/>
<linearGradient id="SVGID_00000056410515193897348870000002285742199389545131_" gradientUnits="userSpaceOnUse" x1="6" y1="5" x2="8" y2="5">
	<stop  offset="0" style="stop-color:#007BFF"/>
	<stop  offset="1" style="stop-color:#00BFF1"/>
</linearGradient>
<rect x="6" y="4" style="fill:url(#SVGID_00000056410515193897348870000002285742199389545131_);" width="2" height="2"/>
<linearGradient id="SVGID_00000153678255962045358020000008869534424430236080_" gradientUnits="userSpaceOnUse" x1="10" y1="5" x2="12" y2="5">
	<stop  offset="0" style="stop-color:#007BFF"/>
	<stop  offset="1" style="stop-color:#00BFF1"/>
</linearGradient>
<rect x="10" y="4" style="fill:url(#SVGID_00000153678255962045358020000008869534424430236080_);" width="2" height="2"/>
<linearGradient id="SVGID_00000016049539132924314570000003897880037774433927_" gradientUnits="userSpaceOnUse" x1="14" y1="5" x2="16" y2="5">
	<stop  offset="0" style="stop-color:#007BFF"/>
	<stop  offset="1" style="stop-color:#00BFF1"/>
</linearGradient>
<rect x="14" y="4" style="fill:url(#SVGID_00000016049539132924314570000003897880037774433927_);" width="2" height="2"/>
<linearGradient id="SVGID_00000103249738248329372180000005846797731772102029_" gradientUnits="userSpaceOnUse" x1="4" y1="26" x2="38" y2="26">
	<stop  offset="0" style="stop-color:#007BFF"/>
	<stop  offset="1" style="stop-color:#00BFF1"/>
</linearGradient>
<path style="fill:url(#SVGID_00000103249738248329372180000005846797731772102029_);" d="M11,32h8c0.6,0,1,0.4,1,1s-0.4,1-1,1h-3
	c-1.7,0-3,1.3-3,3s1.3,3,3,3h15c0.3,0,0.5-0.1,0.7-0.3C32,39.4,38,33.3,38,28c0-5-2.6-8-7-8s-7,3-7,8c0,3.7,2.9,7.8,4.8,10H16
	c-0.6,0-1-0.4-1-1s0.4-1,1-1h3c1.7,0,3-1.3,3-3s-1.3-3-3-3h-5.8c1.9-2.2,4.8-6.3,4.8-10c0-5-2.6-8-7-8s-7,3-7,8
	c0,5.3,6,11.4,6.3,11.7C10.5,31.9,10.7,32,11,32z M31,22c3.2,0,5,2.1,5,6c0,3.5-3.5,7.8-5,9.5c-1.5-1.7-5-6-5-9.5
	C26,24.1,27.8,22,31,22z M11,14c3.2,0,5,2.1,5,6c0,3.5-3.5,7.8-5,9.5c-1.5-1.7-5-6-5-9.5C6,16.1,7.8,14,11,14z"/>
<linearGradient id="SVGID_00000095329610000611915290000014851478418155108241_" gradientUnits="userSpaceOnUse" x1="8" y1="19" x2="14" y2="19">
	<stop  offset="0" style="stop-color:#007BFF"/>
	<stop  offset="1" style="stop-color:#00BFF1"/>
</linearGradient>
<path style="fill:url(#SVGID_00000095329610000611915290000014851478418155108241_);" d="M14,19c0-1.7-1.3-3-3-3s-3,1.3-3,3
	s1.3,3,3,3S14,20.7,14,19z M10,19c0-0.6,0.4-1,1-1s1,0.4,1,1s-0.4,1-1,1S10,19.6,10,19z"/>
<linearGradient id="SVGID_00000103976403655885261670000004264013895119434925_" gradientUnits="userSpaceOnUse" x1="28" y1="27" x2="34" y2="27">
	<stop  offset="0" style="stop-color:#007BFF"/>
	<stop  offset="1" style="stop-color:#00BFF1"/>
</linearGradient>
<path style="fill:url(#SVGID_00000103976403655885261670000004264013895119434925_);" d="M34,27c0-1.7-1.3-3-3-3s-3,1.3-3,3
	s1.3,3,3,3S34,28.7,34,27z M30,27c0-0.6,0.4-1,1-1s1,0.4,1,1s-0.4,1-1,1S30,27.6,30,27z"/>
<linearGradient id="SVGID_00000148651667305414774200000000001554925147496596_" gradientUnits="userSpaceOnUse" x1="0" y1="32" x2="64" y2="32">
	<stop  offset="0" style="stop-color:#007BFF"/>
	<stop  offset="1" style="stop-color:#00BFF1"/>
</linearGradient>
<path style="fill:url(#SVGID_00000148651667305414774200000000001554925147496596_);" d="M59,0H5C2.2,0,0,2.4,0,5.1V47
	c0,2.8,2.2,5,5,5h17.6l-2.2,6H14c-0.6,0-1,0.4-1,1c0,2.8,2.2,5,5,5h28c2.8,0,5-2.2,5-5c0-0.6-0.4-1-1-1h-6.3l-2.2-6H59
	c2.8,0,5-2.2,5-5V5.1C64,2.4,61.8,0,59,0z M5,2h54c1.7,0,3,1.5,3,3.1V8H4v2h58v32H2V5.1C2,3.5,3.3,2,5,2z M46,62H18
	c-1.3,0-2.4-0.8-2.8-2H21h22h5.8C48.4,61.2,47.3,62,46,62z M41.6,58H22.4l2.2-6h14.6L41.6,58z M59,50H40H24H5c-1.7,0-3-1.3-3-3v-3
	h60v3C62,48.7,60.7,50,59,50z"/>
<linearGradient id="SVGID_00000075867099976792465840000016095924573281410454_" gradientUnits="userSpaceOnUse" x1="40" y1="21" x2="49" y2="21">
	<stop  offset="0" style="stop-color:#007BFF"/>
	<stop  offset="1" style="stop-color:#00BFF1"/>
</linearGradient>
<path style="fill:url(#SVGID_00000075867099976792465840000016095924573281410454_);" d="M41,24h7c0.6,0,1-0.4,1-1v-4
	c0-0.6-0.4-1-1-1h-7c-0.6,0-1,0.4-1,1v4C40,23.6,40.4,24,41,24z M42,20h5v2h-5V20z"/>
<linearGradient id="SVGID_00000124159847102502585150000000759853349953389487_" gradientUnits="userSpaceOnUse" x1="51" y1="21" x2="60" y2="21">
	<stop  offset="0" style="stop-color:#007BFF"/>
	<stop  offset="1" style="stop-color:#00BFF1"/>
</linearGradient>
<path style="fill:url(#SVGID_00000124159847102502585150000000759853349953389487_);" d="M52,24h7c0.6,0,1-0.4,1-1v-4
	c0-0.6-0.4-1-1-1h-7c-0.6,0-1,0.4-1,1v4C51,23.6,51.4,24,52,24z M53,20h5v2h-5V20z"/>
<linearGradient id="SVGID_00000173135728649579754960000016916423853465138864_" gradientUnits="userSpaceOnUse" x1="40" y1="27" x2="60" y2="27">
	<stop  offset="0" style="stop-color:#007BFF"/>
	<stop  offset="1" style="stop-color:#00BFF1"/>
</linearGradient>
<rect x="40" y="26" style="fill:url(#SVGID_00000173135728649579754960000016916423853465138864_);" width="20" height="2"/>
<linearGradient id="SVGID_00000117673910331143098200000014028043467922842043_" gradientUnits="userSpaceOnUse" x1="40" y1="31" x2="60" y2="31">
	<stop  offset="0" style="stop-color:#007BFF"/>
	<stop  offset="1" style="stop-color:#00BFF1"/>
</linearGradient>
<rect x="40" y="30" style="fill:url(#SVGID_00000117673910331143098200000014028043467922842043_);" width="20" height="2"/>
<linearGradient id="SVGID_00000182512901650268068290000017087657714107598526_" gradientUnits="userSpaceOnUse" x1="40" y1="35" x2="60" y2="35">
	<stop  offset="0" style="stop-color:#007BFF"/>
	<stop  offset="1" style="stop-color:#00BFF1"/>
</linearGradient>
<rect x="40" y="34" style="fill:url(#SVGID_00000182512901650268068290000017087657714107598526_);" width="20" height="2"/>
<linearGradient id="SVGID_00000043451336210496790560000012723061778095521664_" gradientUnits="userSpaceOnUse" x1="40" y1="14" x2="43" y2="14">
	<stop  offset="0" style="stop-color:#007BFF"/>
	<stop  offset="1" style="stop-color:#00BFF1"/>
</linearGradient>
<rect x="40" y="13" style="fill:url(#SVGID_00000043451336210496790560000012723061778095521664_);" width="3" height="2"/>
<linearGradient id="SVGID_00000126289209781449715730000014739970853041213622_" gradientUnits="userSpaceOnUse" x1="45" y1="14" x2="49" y2="14">
	<stop  offset="0" style="stop-color:#007BFF"/>
	<stop  offset="1" style="stop-color:#00BFF1"/>
</linearGradient>
<rect x="45" y="13" style="fill:url(#SVGID_00000126289209781449715730000014739970853041213622_);" width="4" height="2"/>
<linearGradient id="SVGID_00000086673938141389930340000010421182547948568224_" gradientUnits="userSpaceOnUse" x1="51" y1="14" x2="60" y2="14">
	<stop  offset="0" style="stop-color:#007BFF"/>
	<stop  offset="1" style="stop-color:#00BFF1"/>
</linearGradient>
<rect x="51" y="13" style="fill:url(#SVGID_00000086673938141389930340000010421182547948568224_);" width="9" height="2"/>
</svg>
