<?xml version="1.0" encoding="utf-8"?>
<!-- Generator: Adobe Illustrator 26.5.0, SVG Export Plug-In . SVG Version: 6.00 Build 0)  -->
<svg version="1.1" id="Layer_1" xmlns="http://www.w3.org/2000/svg" xmlns:xlink="http://www.w3.org/1999/xlink" x="0px" y="0px"
	 viewBox="0 0 16 16" style="enable-background:new 0 0 16 16;" xml:space="preserve">
<style type="text/css">
	.st0{fill:url(#SVGID_1_);}
	.st1{fill:url(#SVGID_00000029020753434572844530000012235085005574549653_);}
</style>
<linearGradient id="SVGID_1_" gradientUnits="userSpaceOnUse" x1="3" y1="10.525" x2="13" y2="10.525">
	<stop  offset="0" style="stop-color:#007BFF"/>
	<stop  offset="1" style="stop-color:#00BFF1"/>
</linearGradient>
<path class="st0" d="M4,16c0,0-1,0-1-1s1-4,5-4s5,3,5,4s-1,1-1,1H4z M8,10.1c1.4,0,2.5-1.1,2.5-2.5S9.4,5.1,8,5.1S5.5,6.2,5.5,7.6
	S6.6,10.1,8,10.1z"/>
<linearGradient id="SVGID_00000056405913449567733940000000256432337132632753_" gradientUnits="userSpaceOnUse" x1="0" y1="7.5" x2="16" y2="7.5">
	<stop  offset="0" style="stop-color:#007BFF"/>
	<stop  offset="1" style="stop-color:#00BFF1"/>
</linearGradient>
<path style="fill:url(#SVGID_00000056405913449567733940000000256432337132632753_);" d="M2,1C0.9,1,0,1.9,0,3v9.5
	C0,13.3,0.7,14,1.5,14h0.7c0.2-0.7,0.6-1.4,1.1-2H1V3c0-0.6,0.4-1,1-1h12c0.6,0,1,0.4,1,1v9h-2.2c0.6,0.7,0.9,1.4,1.1,2h0.7
	c0.8,0,1.5-0.7,1.5-1.5V3c0-1.1-0.9-2-2-2H2z"/>
</svg>
