<?xml version="1.0" encoding="utf-8"?>
<!-- Generator: Adobe Illustrator 26.5.0, SVG Export Plug-In . SVG Version: 6.00 Build 0)  -->
<svg version="1.1" id="Layer_1" xmlns="http://www.w3.org/2000/svg" xmlns:xlink="http://www.w3.org/1999/xlink" x="0px" y="0px"
	 viewBox="0 0 576 512" style="enable-background:new 0 0 576 512;" xml:space="preserve">
<style type="text/css">
	.st0{fill:url(#SVGID_1_);}
</style>
<linearGradient id="SVGID_1_" gradientUnits="userSpaceOnUse" x1="0" y1="256" x2="576.0361" y2="256">
	<stop  offset="0" style="stop-color:#007BFF"/>
	<stop  offset="1" style="stop-color:#00BFF1"/>
</linearGradient>
<path class="st0" d="M288,176c48.6,0,88-39.4,88-88S336.6,0,288,0s-88,39.4-88,88S239.4,176,288,176z M78.7,372.9
	c15-12.5,50-34.4,97.3-50.1V432h224V322.7c47.3,15.8,82.3,37.7,97.3,50.1c20.4,17,50.6,14.2,67.6-6.1s14.2-50.6-6.1-67.6
	c-12-10-30.1-22.5-53.2-35c-8.4,14.3-23.9,23.9-41.6,23.9c-26.5,0-48-21.5-48-48c0-4.3,0.6-8.4,1.6-12.4
	C379.1,215.9,335.3,208,288,208c-60.2,0-114.9,12.9-160,29.9c0,0.7,0,1.4,0,2.1c0,26.5-21.5,48-48,48c-11.8,0-22.7-4.3-31-11.4
	c-13.1,8.1-23.7,15.9-31.7,22.5c-20.4,17-23.1,47.2-6.1,67.6S58.4,389.8,78.7,372.9L78.7,372.9z M24,464c-13.3,0-24,10.7-24,24
	s10.7,24,24,24h528c13.3,0,24-10.7,24-24s-10.7-24-24-24H24z M272,280c0,13.3-10.7,24-24,24s-24-10.7-24-24s10.7-24,24-24
	C261.3,256,272,266.7,272,280z M328,384c-13.3,0-24-10.7-24-24s10.7-24,24-24s24,10.7,24,24S341.3,384,328,384z M96,240
	c0-8.8-7.2-16-16-16s-16,7.2-16,16s7.2,16,16,16S96,248.8,96,240z M464,256c8.8,0,16-7.2,16-16s-7.2-16-16-16s-16,7.2-16,16
	S455.2,256,464,256z"/>
</svg>
