<?xml version="1.0" encoding="utf-8"?>
<!-- Generator: Adobe Illustrator 26.5.0, SVG Export Plug-In . SVG Version: 6.00 Build 0)  -->
<svg version="1.1"
	 id="Layer_1" shape-rendering="geometricPrecision" text-rendering="geometricPrecision" image-rendering="optimizeQuality"
	 xmlns="http://www.w3.org/2000/svg" xmlns:xlink="http://www.w3.org/1999/xlink" x="0px" y="0px" viewBox="0 0 441 512"
	 style="enable-background:new 0 0 441 512;" xml:space="preserve">
<style type="text/css">
	.st0{fill-rule:evenodd;clip-rule:evenodd;fill:url(#SVGID_1_);}
</style>
<linearGradient id="SVGID_1_" gradientUnits="userSpaceOnUse" x1="0" y1="256.01" x2="441" y2="256.01">
	<stop  offset="0" style="stop-color:#007BFF"/>
	<stop  offset="1" style="stop-color:#00BFF1"/>
</linearGradient>
<path class="st0" d="M324.9,279.8c32,0,61,13,82,34c21.1,21,34.1,50,34.1,82.1c0,32.1-13,61.1-34,82.1l-1.3,1.2
	c-20.9,20.3-49.4,32.8-80.8,32.8c-32.1,0-61.1-13-82.1-34c-21-21-34-50-34-82.1s13-61.1,34-82.1
	C263.8,292.8,292.8,279.8,324.9,279.8L324.9,279.8z M243.1,38.1v54.2c1,12.9,5.5,23.1,13.4,29.8c8.2,7,20.5,10.9,36.7,11.2l37.9,0
	L243.1,38.1L243.1,38.1z M334.3,158.6l-41.3,0c-22.5-0.4-40.2-6.4-52.9-17.2c-13.2-11.3-20.7-27.3-22.2-47.2l-0.1-1.7v-67h-155
	c-10.3,0-19.8,4.2-26.5,11s-11,16.2-11,26.5v336.5c0,10.3,4.2,19.7,11.1,26.5c6.8,6.8,16.2,11,26.5,11h119.4
	c2.5,8.8,5.9,17.2,9.9,25.3H62.9c-17.3,0-33-7.1-44.4-18.5C7.1,432.4,0,416.6,0,399.4V62.9c0-17.3,7.1-33,18.5-44.4
	C29.9,7.1,45.6,0,62.9,0h173.9c4.1,0,7.8,2,10.1,5l109.4,118.3c2.2,2.4,3.3,5.5,3.3,8.6l0,119.7c-8.2-2-16.6-3.2-25.3-3.8V158.6z
	 M104.6,213.1c-7,0-12.6-5.7-12.6-12.6c0-7,5.7-12.6,12.6-12.6h150.5c7,0,12.6,5.7,12.6,12.6c0,7-5.7,12.6-12.6,12.6H104.6
	L104.6,213.1z M104.6,285.4c-7,0-12.6-5.7-12.6-12.6c0-7,5.7-12.6,12.6-12.6h142.5c3.7,0,7.1,1.6,9.4,4.1
	c-11,5.7-21.3,12.8-30.5,21.1L104.6,285.4L104.6,285.4z M104.6,357.7c-7,0-12.6-5.7-12.6-12.6c0-7,5.7-12.6,12.6-12.6h86.2
	c-3.8,8-6.9,16.5-9.3,25.3H104.6z M278.9,381.2h9.1v-12c0-10.4,4.3-19.8,11.1-26.7v0c6.8-6.9,16.3-11.1,26.7-11.1
	c10.4,0,19.8,4.2,26.7,11.1v0c6.8,6.8,11.1,16.3,11.1,26.7v12h7.3c1.6,0,2.9,1.3,2.9,3V440c0,1.6-1.3,3-2.9,3h-92c-1.6,0-3-1.3-3-3
	v-55.9C275.9,382.5,277.3,381.2,278.9,381.2L278.9,381.2z M302.7,381.2h46.2V369c0-6.4-2.6-12.1-6.8-16.3l0,0
	c-4.2-4.2-10-6.8-16.3-6.8s-12.1,2.6-16.3,6.8c-4.2,4.2-6.8,10-6.8,16.3V381.2L302.7,381.2z"/>
</svg>
