<?xml version="1.0" encoding="utf-8"?>
<!-- Generator: Adobe Illustrator 26.5.0, SVG Export Plug-In . SVG Version: 6.00 Build 0)  -->
<svg version="1.1" id="Layer_1" xmlns="http://www.w3.org/2000/svg" xmlns:xlink="http://www.w3.org/1999/xlink" x="0px" y="0px"
	 viewBox="0 0 733.1 511.2" style="enable-background:new 0 0 733.1 511.2;" xml:space="preserve">
<style type="text/css">
	.st0{fill-rule:evenodd;clip-rule:evenodd;fill:url(#SVGID_1_);}
</style>
<g>
	
		<linearGradient id="SVGID_1_" gradientUnits="userSpaceOnUse" x1="6.7309" y1="257.9508" x2="726.3691" y2="257.9508" gradientTransform="matrix(1 0 0 -1 0 513.5015)">
		<stop  offset="0" style="stop-color:#007BFF"/>
		<stop  offset="1" style="stop-color:#00BFF1"/>
	</linearGradient>
	<path class="st0" d="M6.7,506.8c5.9-76.1-8.8-72.6,54.5-96.6c31.6-11.7,72-26.9,101.3-45.1l54.5,141.7H6.7L6.7,506.8L6.7,506.8z
		 M491.6,192.9c-4.7-0.6-7.6-4.7-7-9.4c0.6-4.7,4.7-8.2,9.4-7l135.8,19.9c4.7,0.6,7.6,4.7,7,9.4s-4.7,8.2-9.4,7L491.6,192.9
		L491.6,192.9z M506.2,140.8c-4.7-0.6-7.6-4.7-7-9.4c0.6-4.7,4.7-8.2,9.4-7l68.5,10.5c4.7,0.6,7.6,4.7,7,9.4s-4.7,8.2-9.4,7
		L506.2,140.8L506.2,140.8z M515,86.9c-4.7-0.6-7.6-4.7-7-9.4c0.6-4.7,4.7-8.2,9.4-7l135.8,19.9c4.7,0.6,7.6,4.7,7,9.4
		c-0.6,4.7-4.7,8.2-9.4,7L515,86.9L515,86.9z M279.6,431.2h7.6c7,0,12.3-5.9,12.3-12.3V399c0-7-5.9-12.3-12.3-12.3h-45.1
		c-7,0-12.3,5.9-12.3,12.3v19.9c0,7,5.9,12.3,12.3,12.3h7.6l-14.6,75h58.6L279.6,431.2L279.6,431.2L279.6,431.2z M619.8,37.7
		L517.3,24.3c-6.4-0.6-12.9-0.6-18.7,1.2c-5.9,1.8-11.1,4.1-16.4,8.2c-5.3,4.1-9.4,8.8-12.3,14.1s-4.7,11.1-5.9,18.2l-13.5,99.5
		c-1.2,6.4-8.2,28.1-6.4,34c1.8,5.9,4.1,11.1,8.2,16.4c4.1,5.3,8.8,9.4,14.1,12.3c5.3,2.9,11.1,4.7,17.6,5.9l43.9,5.9
		c5.3,0.6,8.8,5.3,8.2,10.5c0,1.2-0.6,2.3-1.2,2.9c-2.3,5.9-5.3,11.7-8.2,17.6c-2.9,5.9-5.9,11.7-9.4,17c-1.8,2.9-3.5,5.3-5.9,8.2
		c9.4-2.9,18.7-6.4,26.9-10.5c8.8-4.1,17.6-9.4,25.2-14.6c8.2-5.9,15.2-12.3,22.3-19.3c2.3-2.3,5.3-2.9,8.2-2.9l37.5,4.7
		c6.4,1.2,12.9,0.6,18.7-1.2c5.9-1.8,11.1-4.1,17-8.2c5.3-4.1,9.4-8.8,12.3-14.1s4.7-11.1,5.9-17.6l21.1-114.8
		c1.2-6.4,0.6-12.9-1.2-18.7c-1.8-5.9-4.1-11.1-8.2-16.4C693,57.1,688.3,53,683,50c-5.3-2.9-11.1-4.7-18.2-5.9L619.8,37.7
		L619.8,37.7L619.8,37.7L619.8,37.7L619.8,37.7z M566.5,12l101.9,13.5c8.8,1.2,17,4.1,24.6,8.2c7.6,4.1,14.1,10,19.3,17.6
		c5.3,7,9.4,15.2,11.7,23.4s2.9,17,1.8,25.8l-21.1,114.8c-1.2,8.8-4.1,17.6-8.2,24.6c-4.1,7.6-10,14.1-17.6,19.3
		c-7,5.9-15.2,9.4-23.4,11.7c-8.2,2.3-17,2.9-25.8,1.8l-32.8-4.7c-7,6.4-14.1,12.9-21.7,18.2c-8.8,6.4-18.2,11.7-28.1,16.4
		s-20.5,8.8-31,11.7c-10.5,2.9-22.3,5.3-34,7c-3.5,0.6-7-1.2-8.8-4.1c-2.9-4.1-1.8-10,2.3-12.9c5.9-4.1,11.1-8.2,15.8-12.9
		c4.1-4.1,7.6-8.8,10.5-13.5l0,0c2.9-5.3,5.9-10.5,8.8-15.8c1.2-1.8,1.8-4.1,2.9-5.9l-31.6-4.1c-8.8-1.2-17-4.1-24.6-8.2
		c-7.6-4.1-14.1-10-19.3-17.6c-5.3-7-9.4-15.2-11.7-23.4s4.7-32.2,5.9-41l13.5-99.5c1.2-8.8,4.1-17,8.2-24.6
		c4.1-7.6,10-14.1,17.6-19.3c7-5.9,15.2-9.4,23.4-11.7c8.2-2.3,17-2.9,25.8-1.8L566.5,12L566.5,12L566.5,12L566.5,12L566.5,12z
		 M200.5,321.7c1.2-11.7-33.4-56.2-39.2-77.3c-13.5-21.7-18.2-55.6-3.5-78.5c5.9-8.8,3.5-25.2,3.5-37.5c0-123.6,216.7-123.6,216.7,0
		c0,15.8-3.5,27.5,4.7,39.8c14.1,20.5,7,56.8-5.3,76.1c-7.6,22.3-43.9,65-41.6,77.3C338.2,385,200,383.2,200.5,321.7L200.5,321.7
		L200.5,321.7z M368.6,358.6c26.3,17,64.4,31,94.9,41c59.1,19.9,59.1,22.3,58.6,106.6H312.4L368.6,358.6L368.6,358.6L368.6,358.6z"
		/>
</g>
</svg>
